<svg height="512pt" viewBox="0 -11 512.001 512" width="512pt" xmlns="http://www.w3.org/2000/svg"><path d="m245 0c-36.386719 0-70.914062 7.945312-101.964844 22.171875l16.039063 452.320313c26.738281 10.015624 55.691406 15.507812 85.925781 15.507812 135.308594 0 245-109.691406 245-245s-109.691406-245-245-245zm0 0" fill="#fecd0a"/><path d="m445.308594 90.191406h-299.859375l12.25 345.488282h311.277343v-321.820313c0-13.015625-10.652343-23.667969-23.667968-23.667969zm0 0" fill="#2b3894"/><path d="m444.949219 110.191406h-404.542969c-25.535156 38.671875-40.40625 85-40.40625 134.808594 0 77.046875 35.578125 145.773438 91.1875 190.679688h357.789062v-247.273438c0-22.292969 0-52.882812 0-74.1875 0-2.222656-1.804687-4.027344-4.027343-4.027344zm0 0" fill="#27a3ff"/><path d="m504.570312 433.679688c-8.054687 0-245.179687 0-415.832031 0 21.097657 17.484374 45.167969 31.507812 71.351563 41.179687h307.449218c21.449219 0 34.847657-8.570313 40.050782-10.433594 2.683594-1.191406 4.410156-3.851562 4.410156-6.789062v-16.53125c0-4.101563-3.324219-7.425781-7.429688-7.425781zm0 0" fill="#aeaeff"/><path d="m199.257812 453.691406v-20.011718c-37.933593 0-75.617187 0-110.519531 0 21.097657 17.484374 45.167969 31.507812 71.347657 41.179687h36.007812c-4.28125-1.46875-7.363281-5.515625-7.363281-10.292969 0-5.894531 4.683593-10.679687 10.527343-10.875zm0 0" fill="#8181fc"/><path d="m117.519531 433.679688v8.589843c0 6.601563 5.402344 12 12 12h161.992188c6.597656 0 12-5.398437 12-12v-8.589843c-57.855469 0-124.222657 0-185.992188 0zm0 0" fill="#8181fc"/><path d="m184.839844 442.269531v-8.589843c-22.628906 0-45.265625 0-67.320313 0v8.589843c0 6.601563 5.398438 12 12 12h67.320313c-6.597656 0-12-5.398437-12-12zm0 0" fill="#615df9"/><path d="m356.316406 26.695312c-3.402344-1.738281-6.847656-3.402343-10.335937-4.980468h-201.960938c-45.289062 20.515625-83.226562 54.40625-108.78125 96.632812v253.308594c14.257813 23.5625 32.375 44.527344 53.472657 62.023438h297.078124v-320.238282c-26.6875 0-48.402343-21.710937-48.402343-48.398437.003906-15.605469 7.429687-29.496094 18.929687-38.347657zm0 0" fill="#e6f7fe"/><path d="m99.691406 431.972656v-384.242187c-25.824218 19.058593-47.777344 43.058593-64.453125 70.617187v253.308594c14.257813 23.5625 32.375 44.527344 53.472657 62.023438h11.117187c-.082031-.558594-.136719-1.125-.136719-1.707032zm0 0" fill="#d5f1fe"/><path d="m73.289062 70.261719h264.386719c-.1875-1.714844-.285156-3.457031-.285156-5.21875 0-18.957031 10.953125-35.390625 26.863281-43.328125h-220.234375c-26.410156 11.960937-50.316406 28.484375-70.730469 48.546875zm0 0" fill="#615df9"/><path d="m99.691406 47.753906c-9.324218 6.882813-18.152344 14.402344-26.402344 22.507813h26.402344zm0 0" fill="#3d4ec6"/><path d="m109.574219 55.523438c5.4375 0 10-4.414063 10-10 0-3.378907-1.695313-6.460938-4.429688-8.296876-5.25 3.289063-10.363281 6.765626-15.335937 10.429688.988281 4.5 5.015625 7.867188 9.765625 7.867188zm0 0" fill="#fecd0a"/><path d="m140.074219 55.523438c-5.476563 0-10-4.46875-10-10 0-6.335938 5.84375-11.042969 11.960937-9.8125 4.785156.992187 8.039063 5.125 8.039063 9.8125 0 5.574218-4.546875 10-10 10zm0 0" fill="#39df74"/><path d="m342.835938 53.488281h-38.613282c-4.140625 0-7.5-3.359375-7.5-7.5s3.359375-7.5 7.5-7.5h38.613282c4.144531 0 7.5 3.359375 7.5 7.5 0 4.144531-3.355469 7.5-7.5 7.5zm0 0" fill="#aeaeff"/><path d="m270.546875 53.488281h-94.324219c-4.140625 0-7.5-3.359375-7.5-7.5s3.359375-7.5 7.5-7.5h94.324219c4.140625 0 7.5 3.359375 7.5 7.5 0 4.144531-3.359375 7.5-7.5 7.5zm0 0" fill="#aeaeff"/><path d="m244.722656 45.988281c0-4.140625 3.359375-7.5 7.5-7.5h-76c-4.140625 0-7.5 3.359375-7.5 7.5s3.359375 7.5 7.5 7.5h76c-4.140625 0-7.5-3.355469-7.5-7.5zm0 0" fill="#8181fc"/><path d="m111.980469 122.441406h-19.804688c-4.140625 0-7.5-3.355468-7.5-7.5 0-4.140625 3.359375-7.5 7.5-7.5h19.804688c4.140625 0 7.5 3.359375 7.5 7.5 0 4.144532-3.359375 7.5-7.5 7.5zm0 0" fill="#11dfef"/><path d="m111.980469 157.601562h-19.804688c-4.140625 0-7.5-3.359374-7.5-7.5 0-4.144531 3.359375-7.5 7.5-7.5h19.804688c4.140625 0 7.5 3.355469 7.5 7.5 0 4.140626-3.359375 7.5-7.5 7.5zm0 0" fill="#d5f1fe"/><path d="m111.980469 192.757812h-19.804688c-4.140625 0-7.5-3.355468-7.5-7.5 0-4.140624 3.359375-7.5 7.5-7.5h19.804688c4.140625 0 7.5 3.359376 7.5 7.5 0 4.144532-3.359375 7.5-7.5 7.5zm0 0" fill="#fecd0a"/><path d="m111.980469 227.917969h-19.804688c-4.140625 0-7.5-3.359375-7.5-7.5s3.359375-7.5 7.5-7.5h19.804688c4.140625 0 7.5 3.359375 7.5 7.5s-3.359375 7.5-7.5 7.5zm0 0" fill="#4fbbff"/><path d="m111.980469 263.074219h-19.804688c-4.140625 0-7.5-3.355469-7.5-7.5 0-4.140625 3.359375-7.5 7.5-7.5h19.804688c4.140625 0 7.5 3.359375 7.5 7.5 0 4.144531-3.359375 7.5-7.5 7.5zm0 0" fill="#11dfef"/><path d="m111.980469 298.234375h-19.804688c-4.140625 0-7.5-3.359375-7.5-7.5 0-4.144531 3.359375-7.5 7.5-7.5h19.804688c4.140625 0 7.5 3.355469 7.5 7.5 0 4.140625-3.359375 7.5-7.5 7.5zm0 0" fill="#fecd0a"/><path d="m111.980469 333.390625h-19.804688c-4.140625 0-7.5-3.355469-7.5-7.5 0-4.140625 3.359375-7.5 7.5-7.5h19.804688c4.140625 0 7.5 3.359375 7.5 7.5 0 4.144531-3.359375 7.5-7.5 7.5zm0 0" fill="#11dfef"/><path d="m111.980469 368.550781h-19.804688c-4.140625 0-7.5-3.359375-7.5-7.5s3.359375-7.5 7.5-7.5h19.804688c4.140625 0 7.5 3.359375 7.5 7.5s-3.359375 7.5-7.5 7.5zm0 0" fill="#4fbbff"/><path d="m111.980469 403.710938h-19.804688c-4.140625 0-7.5-3.359376-7.5-7.5 0-4.144532 3.359375-7.5 7.5-7.5h19.804688c4.140625 0 7.5 3.355468 7.5 7.5 0 4.140624-3.359375 7.5-7.5 7.5zm0 0" fill="#fecd0a"/><path d="m202.761719 122.441406h-51.035157c-4.144531 0-7.5-3.355468-7.5-7.5 0-4.140625 3.355469-7.5 7.5-7.5h51.035157c4.140625 0 7.5 3.359375 7.5 7.5 0 4.144532-3.359375 7.5-7.5 7.5zm0 0" fill="#d5f1fe"/><path d="m172.347656 157.601562h-20.621094c-4.144531 0-7.5-3.359374-7.5-7.5 0-4.144531 3.355469-7.5 7.5-7.5h20.621094c4.144532 0 7.5 3.355469 7.5 7.5 0 4.140626-3.355468 7.5-7.5 7.5zm0 0" fill="#4fbbff"/><path d="m204.703125 192.757812h-52.976563c-4.144531 0-7.5-3.355468-7.5-7.5 0-4.140624 3.355469-7.5 7.5-7.5h52.976563c4.140625 0 7.5 3.359376 7.5 7.5 0 4.144532-3.359375 7.5-7.5 7.5zm0 0" fill="#d5f1fe"/><path d="m204.703125 227.917969h-24.578125c-4.140625 0-7.5-3.359375-7.5-7.5s3.359375-7.5 7.5-7.5h24.578125c4.140625 0 7.5 3.359375 7.5 7.5s-3.359375 7.5-7.5 7.5zm0 0" fill="#fecd0a"/><path d="m204.703125 263.074219h-18.152344c-4.144531 0-7.5-3.355469-7.5-7.5 0-4.140625 3.355469-7.5 7.5-7.5h18.152344c4.140625 0 7.5 3.359375 7.5 7.5 0 4.144531-3.359375 7.5-7.5 7.5zm0 0" fill="#11dfef"/><path d="m204.703125 298.234375h-52.976563c-4.144531 0-7.5-3.359375-7.5-7.5 0-4.144531 3.355469-7.5 7.5-7.5h52.976563c4.140625 0 7.5 3.355469 7.5 7.5 0 4.140625-3.359375 7.5-7.5 7.5zm0 0" fill="#11dfef"/><path d="m204.703125 333.390625h-52.976563c-4.144531 0-7.5-3.355469-7.5-7.5 0-4.140625 3.355469-7.5 7.5-7.5h52.976563c4.140625 0 7.5 3.359375 7.5 7.5 0 4.144531-3.359375 7.5-7.5 7.5zm0 0" fill="#4fbbff"/><path d="m186.550781 368.550781h-34.824219c-4.144531 0-7.5-3.359375-7.5-7.5s3.355469-7.5 7.5-7.5h34.824219c4.140625 0 7.5 3.359375 7.5 7.5s-3.359375 7.5-7.5 7.5zm0 0" fill="#fecd0a"/><path d="m204.703125 403.710938h-52.976563c-4.144531 0-7.5-3.359376-7.5-7.5 0-4.144532 3.355469-7.5 7.5-7.5h52.976563c4.140625 0 7.5 3.355468 7.5 7.5 0 4.140624-3.359375 7.5-7.5 7.5zm0 0" fill="#11dfef"/><path d="m270.796875 227.917969h-27.90625c-4.144531 0-7.5-3.359375-7.5-7.5s3.355469-7.5 7.5-7.5h27.90625c4.140625 0 7.5 3.359375 7.5 7.5s-3.355469 7.5-7.5 7.5zm0 0" fill="#11dfef"/><path d="m327.601562 263.074219h-84.710937c-4.140625 0-7.5-3.355469-7.5-7.5 0-4.140625 3.359375-7.5 7.5-7.5h84.710937c4.140626 0 7.5 3.359375 7.5 7.5 0 4.144531-3.359374 7.5-7.5 7.5zm0 0" fill="#4fbbff"/><path d="m302.882812 298.234375h-59.992187c-4.144531 0-7.5-3.359375-7.5-7.5 0-4.144531 3.355469-7.5 7.5-7.5h59.992187c4.144532 0 7.5 3.355469 7.5 7.5 0 4.140625-3.355468 7.5-7.5 7.5zm0 0" fill="#d5f1fe"/><path d="m302.882812 403.710938h-59.992187c-4.144531 0-7.5-3.359376-7.5-7.5 0-4.144532 3.355469-7.5 7.5-7.5h59.992187c4.144532 0 7.5 3.355468 7.5 7.5 0 4.140624-3.355468 7.5-7.5 7.5zm0 0" fill="#d5f1fe"/><path d="m435.691406 65.042969c0 27.558593-22.34375 49.898437-49.902344 49.898437-27.558593 0-49.902343-22.339844-49.902343-49.898437 0-27.5625 22.34375-49.902344 49.902343-49.902344 27.558594 0 49.902344 22.339844 49.902344 49.902344zm0 0" fill="#00c82f"/><path d="m415.996094 104.75c-31.449219-.003906-35.261719-21.402344-35.15625-32.332031.035156-3.773438-1.308594-7.46875-3.890625-10.226563-16.738281-17.886718-4.515625-45.007812-4.402344-45.261718-21.128906 5.804687-36.660156 25.140624-36.660156 48.113281 0 27.558593 22.339843 49.898437 49.902343 49.898437 11.355469 0 21.824219-3.800781 30.207032-10.191406zm0 0" fill="#02ad22"/><path d="m374.300781 87.371094-14.648437-14.652344c-3.90625-3.902344-3.90625-10.234375 0-14.140625 3.902344-3.90625 10.234375-3.90625 14.140625 0l7.578125 7.578125 17.566406-17.566406c3.90625-3.90625 10.238281-3.90625 14.144531 0 3.902344 3.90625 3.902344 10.238281 0 14.144531l-24.636719 24.636719c-3.90625 3.902344-10.242187 3.902344-14.144531 0zm0 0" fill="#e6f7fe"/></svg>