<svg height="512pt" viewBox="-11 0 512 512" width="512pt" xmlns="http://www.w3.org/2000/svg"><path d="m446.253906 406.730469c27.570313-39.636719 43.746094-87.789063 43.746094-139.730469 0-135.308594-109.691406-245-245-245s-245 109.691406-245 245c0 20.167969 2.453125 39.761719 7.050781 58.515625zm0 0" fill="#2b3894"/><path d="m43.132812 71.292969v15.59375h400.390626c.742187 0 1.34375.601562 1.34375 1.34375v320.449219c17.761718-25.003907 30.949218-53.476563 38.335937-84.214844v-253.171875zm0 0" fill="#8181fc"/><path d="m109.96875 71.292969h-66.835938v15.59375h66.839844v-15.59375zm0 0" fill="#615df9"/><path d="m43.132812 47.027344h440.074219v26.265625h-440.074219zm0 0" fill="#d5f1fe"/><path d="m160.089844 73.292969h-116.957032v-26.265625h92.214844c13.664063 0 24.742188 11.757812 24.742188 26.265625zm0 0" fill="#11dfef"/><path d="m43.132812 47.027344h66.839844v26.265625h-66.839844zm0 0" fill="#0ac6e5"/><path d="m481.859375 0c-8.492187 0-425.023437 0-437.382813 0-.742187 0-1.34375.601562-1.34375 1.34375v47.207031h440.074219v-47.207031c-.003906-.742188-.601562-1.34375-1.347656-1.34375zm0 0" fill="#615df9"/><path d="m109.96875 12c0-6.601562 5.402344-12 12-12-43.664062 0-74.273438 0-77.492188 0-.742187 0-1.34375.601562-1.34375 1.34375v47.207031h66.835938zm0 0" fill="#3342ae"/><path d="m79.46875 33.808594c-5.507812 0-10-4.488282-10-10 0-4.769532 3.355469-8.859375 8.050781-9.8125 6.117188-1.230469 11.949219 3.472656 11.949219 9.8125 0 5.554687-4.542969 10-10 10zm0 0" fill="#f948b4"/><path d="m109.96875 33.808594c-5.429688 0-10-4.421875-10-10 0-6.324219 5.820312-11.046875 11.953125-9.8125 4.839844.984375 8.046875 5.214844 8.046875 9.8125 0 5.507812-4.488281 10-10 10zm0 0" fill="#fecd0a"/><path d="m140.46875 33.808594c-5.429688 0-10-4.421875-10-10 0-6.355469 5.84375-11.042969 11.953125-9.8125 4.84375.984375 8.046875 5.21875 8.046875 9.8125 0 5.507812-4.488281 10-10 10zm0 0" fill="#39df74"/><path d="m454.308594 31.773438h-52.667969c-4.144531 0-7.5-3.359376-7.5-7.5 0-4.140626 3.355469-7.5 7.5-7.5h52.667969c4.140625 0 7.5 3.359374 7.5 7.5 0 4.140624-3.359375 7.5-7.5 7.5zm0 0" fill="#aeaeff"/><path d="m363.964844 31.773438h-183.851563c-4.140625 0-7.5-3.359376-7.5-7.5 0-4.140626 3.359375-7.5 7.5-7.5h183.847657c4.144531 0 7.5 3.359374 7.5 7.5 0 4.140624-3.355469 7.5-7.496094 7.5zm0 0" fill="#aeaeff"/><path d="m446.867188 156.179688h-440.070313v168.285156c25.859375 107.582031 122.6875 187.535156 238.203125 187.535156 83.757812 0 157.683594-42.039062 201.867188-106.15625zm0 0" fill="#e6f7fe"/><path d="m73.632812 156.179688h-66.835937v168.285156c10.925781 45.453125 34.519531 85.972656 66.835937 117.613281zm0 0" fill="#d5f1fe"/><path d="m6.796875 131.914062h440.070313v26.265626h-440.070313zm0 0" fill="#d5f1fe"/><path d="m123.753906 158.179688h-116.957031v-26.265626h92.210937c13.667969 0 24.746094 11.761719 24.746094 26.265626zm0 0" fill="#11dfef"/><path d="m6.796875 131.914062h66.835937v26.265626h-66.835937zm0 0" fill="#0ac6e5"/><path d="m445.523438 84.886719c-8.492188 0-425.023438 0-437.386719 0-.742188 0-1.34375.601562-1.34375 1.34375v47.207031h440.074219v-47.207031c0-.742188-.601563-1.34375-1.34375-1.34375zm0 0" fill="#615df9"/><path d="m73.632812 99.855469c0-8.265625 6.703126-14.96875 14.96875-14.96875-45.242187 0-77.171874 0-80.460937 0-.742187 0-1.34375.601562-1.34375 1.34375v47.207031h66.835937zm0 0" fill="#3342ae"/><path d="m43.132812 118.695312c-5.507812 0-10-4.488281-10-10 0-4.769531 3.351563-8.855468 8.050782-9.8125 6.117187-1.230468 11.949218 3.472657 11.949218 9.8125 0 5.558594-4.542968 10-10 10zm0 0" fill="#f948b4"/><path d="m73.632812 118.695312c-5.429687 0-10-4.421874-10-10 0-6.324218 5.816407-11.046874 11.949219-9.8125 4.84375.984376 8.050781 5.214844 8.050781 9.8125 0 5.507813-4.488281 10-10 10zm0 0" fill="#fecd0a"/><path d="m104.132812 118.695312c-5.429687 0-10-4.421874-10-10 0-6.351562 5.84375-11.042968 11.949219-9.8125 4.84375.984376 8.050781 5.21875 8.050781 9.8125 0 5.507813-4.488281 10-10 10zm0 0" fill="#39df74"/><path d="m417.972656 116.660156h-52.671875c-4.140625 0-7.5-3.355468-7.5-7.5 0-4.140625 3.359375-7.5 7.5-7.5h52.671875c4.140625 0 7.5 3.359375 7.5 7.5 0 4.144532-3.359375 7.5-7.5 7.5zm0 0" fill="#aeaeff"/><path d="m327.625 116.660156h-183.847656c-4.140625 0-7.5-3.355468-7.5-7.5 0-4.140625 3.359375-7.5 7.5-7.5h183.847656c4.140625 0 7.5 3.359375 7.5 7.5 0 4.144532-3.359375 7.5-7.5 7.5zm0 0" fill="#aeaeff"/><path d="m324.617188 24.273438c0-4.140626 3.355468-7.5 7.5-7.5h-152c-4.144532 0-7.5 3.359374-7.5 7.5 0 4.140624 3.355468 7.5 7.5 7.5h152c-4.144532 0-7.5-3.355469-7.5-7.5zm0 0" fill="#8181fc"/><path d="m288.277344 109.160156c0-4.140625 3.359375-7.5 7.5-7.5h-152c-4.140625 0-7.5 3.359375-7.5 7.5 0 4.144532 3.359375 7.5 7.5 7.5h152c-4.140625 0-7.5-3.355468-7.5-7.5zm0 0" fill="#8181fc"/><path d="m83.535156 195.613281h-19.804687c-4.140625 0-7.5-3.355469-7.5-7.5 0-4.140625 3.359375-7.5 7.5-7.5h19.804687c4.140625 0 7.5 3.359375 7.5 7.5 0 4.144531-3.359375 7.5-7.5 7.5zm0 0" fill="#11dfef"/><path d="m83.535156 230.773438h-19.804687c-4.140625 0-7.5-3.359376-7.5-7.5 0-4.144532 3.359375-7.5 7.5-7.5h19.804687c4.140625 0 7.5 3.355468 7.5 7.5 0 4.140624-3.359375 7.5-7.5 7.5zm0 0" fill="#d5f1fe"/><path d="m83.535156 265.933594h-19.804687c-4.140625 0-7.5-3.359375-7.5-7.5 0-4.144532 3.359375-7.5 7.5-7.5h19.804687c4.140625 0 7.5 3.355468 7.5 7.5 0 4.140625-3.359375 7.5-7.5 7.5zm0 0" fill="#fecd0a"/><path d="m83.535156 301.089844h-19.804687c-4.140625 0-7.5-3.355469-7.5-7.5 0-4.144532 3.359375-7.5 7.5-7.5h19.804687c4.140625 0 7.5 3.355468 7.5 7.5 0 4.144531-3.359375 7.5-7.5 7.5zm0 0" fill="#4fbbff"/><path d="m83.535156 336.246094h-19.804687c-4.140625 0-7.5-3.355469-7.5-7.5 0-4.140625 3.359375-7.5 7.5-7.5h19.804687c4.140625 0 7.5 3.359375 7.5 7.5 0 4.144531-3.359375 7.5-7.5 7.5zm0 0" fill="#d5f1fe"/><path d="m83.535156 371.40625h-19.804687c-4.140625 0-7.5-3.355469-7.5-7.5s3.359375-7.5 7.5-7.5h19.804687c4.140625 0 7.5 3.355469 7.5 7.5s-3.359375 7.5-7.5 7.5zm0 0" fill="#11dfef"/><path d="m83.535156 406.566406h-19.804687c-4.140625 0-7.5-3.359375-7.5-7.5 0-4.144531 3.359375-7.5 7.5-7.5h19.804687c4.140625 0 7.5 3.355469 7.5 7.5 0 4.140625-3.359375 7.5-7.5 7.5zm0 0" fill="#4fbbff"/><path d="m83.535156 426.722656h-19.804687c-1.335938 0-2.585938.355469-3.671875.964844 4.21875 4.855469 8.632812 9.53125 13.21875 14.035156h10.257812c4.140625 0 7.5-3.355468 7.5-7.5 0-4.140625-3.359375-7.5-7.5-7.5zm0 0" fill="#fecd0a"/><path d="m210.496094 195.613281h-87.214844c-4.144531 0-7.5-3.355469-7.5-7.5 0-4.140625 3.355469-7.5 7.5-7.5h87.214844c4.140625 0 7.5 3.359375 7.5 7.5 0 4.144531-3.359375 7.5-7.5 7.5zm0 0" fill="#11dfef"/><path d="m180.082031 230.773438h-56.800781c-4.144531 0-7.5-3.359376-7.5-7.5 0-4.144532 3.355469-7.5 7.5-7.5h56.800781c4.144531 0 7.5 3.355468 7.5 7.5 0 4.140624-3.355469 7.5-7.5 7.5zm0 0" fill="#4fbbff"/><path d="m236.886719 265.933594h-113.605469c-4.144531 0-7.5-3.359375-7.5-7.5 0-4.144532 3.355469-7.5 7.5-7.5h113.605469c4.140625 0 7.5 3.355468 7.5 7.5 0 4.140625-3.359375 7.5-7.5 7.5zm0 0" fill="#d5f1fe"/><path d="m236.886719 301.089844h-85.207031c-4.140626 0-7.5-3.355469-7.5-7.5 0-4.144532 3.359374-7.5 7.5-7.5h85.207031c4.140625 0 7.5 3.355468 7.5 7.5 0 4.144531-3.359375 7.5-7.5 7.5zm0 0" fill="#11dfef"/><path d="m236.886719 336.246094h-42.605469c-4.140625 0-7.5-3.355469-7.5-7.5 0-4.140625 3.359375-7.5 7.5-7.5h42.605469c4.140625 0 7.5 3.359375 7.5 7.5 0 4.144531-3.359375 7.5-7.5 7.5zm0 0" fill="#fecd0a"/><path d="m236.886719 371.40625h-113.605469c-4.144531 0-7.5-3.355469-7.5-7.5s3.355469-7.5 7.5-7.5h113.605469c4.140625 0 7.5 3.355469 7.5 7.5s-3.359375 7.5-7.5 7.5zm0 0" fill="#4fbbff"/><path d="m236.886719 406.566406h-113.605469c-4.144531 0-7.5-3.359375-7.5-7.5 0-4.144531 3.355469-7.5 7.5-7.5h113.605469c4.140625 0 7.5 3.355469 7.5 7.5 0 4.140625-3.359375 7.5-7.5 7.5zm0 0" fill="#d5f1fe"/><path d="m194.28125 441.722656h-71c-4.144531 0-7.5-3.355468-7.5-7.5 0-4.140625 3.355469-7.5 7.5-7.5h71c4.144531 0 7.5 3.359375 7.5 7.5 0 4.144532-3.355469 7.5-7.5 7.5zm0 0" fill="#11dfef"/><path d="m236.886719 476.882812h-113.605469c-4.144531 0-7.5-3.359374-7.5-7.5 0-4.144531 3.355469-7.5 7.5-7.5h113.605469c4.140625 0 7.5 3.355469 7.5 7.5 0 4.140626-3.359375 7.5-7.5 7.5zm0 0" fill="#4fbbff"/><path d="m331.875 301.089844h-56.800781c-4.144531 0-7.5-3.355469-7.5-7.5 0-4.144532 3.355469-7.5 7.5-7.5h56.800781c4.144531 0 7.5 3.355468 7.5 7.5 0 4.144531-3.355469 7.5-7.5 7.5zm0 0" fill="#4fbbff"/><g fill="#d5f1fe"><path d="m388.679688 336.246094h-113.605469c-4.144531 0-7.5-3.355469-7.5-7.5 0-4.140625 3.355469-7.5 7.5-7.5h113.605469c4.140624 0 7.5 3.359375 7.5 7.5 0 4.144531-3.359376 7.5-7.5 7.5zm0 0"/><path d="m363.960938 371.40625h-88.886719c-4.144531 0-7.5-3.355469-7.5-7.5s3.355469-7.5 7.5-7.5h88.886719c4.144531 0 7.5 3.355469 7.5 7.5s-3.355469 7.5-7.5 7.5zm0 0"/><path d="m363.960938 476.882812h-88.886719c-4.144531 0-7.5-3.359374-7.5-7.5 0-4.144531 3.355469-7.5 7.5-7.5h88.886719c4.144531 0 7.5 3.355469 7.5 7.5 0 4.140626-3.355469 7.5-7.5 7.5zm0 0"/></g></svg>