<svg height="512pt" viewBox="-11 0 512 512" width="512pt" xmlns="http://www.w3.org/2000/svg"><path d="m464.042969 376.835938c16.597656-33.039063 25.957031-70.34375 25.957031-109.835938 0-135.308594-109.691406-245-245-245s-245 109.691406-245 245c0 39.492188 9.359375 76.796875 25.957031 109.835938zm0 0" fill="#27a3ff"/><path d="m24.964844 71.292969h440.070312v88.953125h-440.070312zm0 0" fill="#e6f7fe"/><path d="m24.964844 71.292969h66.90625v88.953125h-66.90625zm0 0" fill="#d5f1fe"/><path d="m465.035156 316.273438h-440.070312v58.5625c39.886718 81.238281 123.425781 137.164062 220.035156 137.164062s180.148438-55.925781 220.035156-137.164062zm0 0" fill="#e6f7fe"/><path d="m91.871094 316.273438h-66.90625v58.5625c15.960937 32.511718 38.921875 60.960937 66.90625 83.402343zm0 0" fill="#d5f1fe"/><path d="m24.964844 47.027344h440.070312v26.265625h-440.070312zm0 0" fill="#d5f1fe"/><path d="m141.921875 73.292969h-116.957031v-26.265625h92.210937c13.667969 0 24.746094 11.757812 24.746094 26.265625zm0 0" fill="#11dfef"/><path d="m24.964844 47.027344h66.90625v26.265625h-66.90625zm0 0" fill="#0ac6e5"/><path d="m463.691406 0c-8.492187 0-425.023437 0-437.382812 0-.742188 0-1.34375.601562-1.34375 1.34375v47.207031h440.070312v-47.207031c0-.742188-.601562-1.34375-1.34375-1.34375zm0 0" fill="#615df9"/><path d="m91.871094 13.878906c0-7.207031 5.539062-13.179687 12.566406-13.878906-44.003906 0-74.898438 0-78.128906 0-.742188 0-1.34375.601562-1.34375 1.34375v47.207031h66.90625zm0 0" fill="#3342ae"/><path d="m61.300781 33.808594c-5.507812 0-10-4.488282-10-10 0-4.769532 3.351563-8.859375 8.050781-9.8125 6.117188-1.230469 11.949219 3.472656 11.949219 9.8125 0 5.554687-4.542969 10-10 10zm0 0" fill="#f948b4"/><path d="m91.800781 33.808594c-5.429687 0-10-4.421875-10-10 0-6.324219 5.816407-11.046875 11.949219-9.8125 4.84375.984375 8.050781 5.214844 8.050781 9.8125 0 5.507812-4.488281 10-10 10zm0 0" fill="#fecd0a"/><path d="m122.300781 33.808594c-5.429687 0-10-4.421875-10-10 0-6.355469 5.84375-11.042969 11.949219-9.8125 4.84375.984375 8.050781 5.21875 8.050781 9.8125 0 5.507812-4.488281 10-10 10zm0 0" fill="#39df74"/><path d="m24.964844 158.8125h110.015625v158.898438h-110.015625zm0 0" fill="#f948b4"/><path d="m24.964844 158.8125h66.90625v158.898438h-66.90625zm0 0" fill="#e00e8b"/><path d="m134.980469 158.8125h110.019531v158.898438h-110.019531zm0 0" fill="#fecd0a"/><path d="m245 158.8125h110.019531v158.898438h-110.019531zm0 0" fill="#27a3ff"/><path d="m354.796875 158.8125h110.019531v158.898438h-110.019531zm0 0" fill="#615df9"/><path d="m103.050781 106.472656h-30.5c-4.140625 0-7.5-3.359375-7.5-7.5 0-4.144531 3.359375-7.5 7.5-7.5h30.5c4.140625 0 7.5 3.355469 7.5 7.5 0 4.140625-3.359375 7.5-7.5 7.5zm0 0" fill="#615df9"/><path d="m431.15625 102.304688h-158.71875c-2.617188 0-4.738281 2.121093-4.738281 4.734374v16.285157c0 2.617187 2.121093 4.738281 4.738281 4.738281h158.71875c2.613281 0 4.738281-2.121094 4.738281-4.738281v-16.285157c0-2.613281-2.121093-4.734374-4.738281-4.734374zm0 0" fill="#d5f1fe"/><path d="m311.007812 123.324219v-16.28125c0-2.617188 2.121094-4.738281 4.738282-4.738281h-43.308594c-2.617188 0-4.738281 2.121093-4.738281 4.738281v16.28125c0 2.617187 2.121093 4.738281 4.738281 4.738281h43.308594c-2.617188 0-4.738282-2.121094-4.738282-4.738281zm0 0" fill="#11dfef"/><path d="m431.15625 102.304688h-22.503906v25.757812h22.503906c2.613281 0 4.738281-2.121094 4.738281-4.738281v-16.28125c0-2.617188-2.121093-4.738281-4.738281-4.738281zm0 0" fill="#615df9"/><path d="m307.6875 367.476562h-125.375c-5.523438 0-10-4.476562-10-10 0-5.523437 4.476562-10 10-10h125.375c5.523438 0 10 4.476563 10 10 0 5.523438-4.476562 10-10 10zm0 0" fill="#11dfef"/><path d="m227.320312 357.476562c0-5.519531 4.480469-10 10-10h-55.007812c-5.523438 0-10 4.480469-10 10 0 5.523438 4.476562 10 10 10h55.007812c-5.519531 0-10-4.476562-10-10zm0 0" fill="#0ac6e5"/><g fill="#d5f1fe"><path d="m371.921875 406.742188h-253.847656c-4.140625 0-7.5-3.355469-7.5-7.5 0-4.140626 3.359375-7.5 7.5-7.5h253.847656c4.144531 0 7.5 3.359374 7.5 7.5 0 4.144531-3.355469 7.5-7.5 7.5zm0 0"/><path d="m371.921875 475.726562h-253.847656c-4.140625 0-7.5-3.355468-7.5-7.5 0-4.140624 3.359375-7.5 7.5-7.5h253.847656c4.144531 0 7.5 3.359376 7.5 7.5 0 4.144532-3.355469 7.5-7.5 7.5zm0 0"/><path d="m371.921875 441.234375h-253.847656c-4.140625 0-7.5-3.355469-7.5-7.5 0-4.140625 3.359375-7.5 7.5-7.5h253.847656c4.144531 0 7.5 3.359375 7.5 7.5 0 4.144531-3.355469 7.5-7.5 7.5zm0 0"/></g><path d="m67.648438 263.648438-18.316407-18.316407c-3.90625-3.90625-3.90625-10.238281 0-14.144531l18.316407-18.3125c3.902343-3.90625 10.234374-3.90625 14.140624 0 3.90625 3.902344 3.90625 10.234375 0 14.140625l-11.242187 11.246094 11.242187 11.242187c3.90625 3.90625 3.90625 10.238282 0 14.144532-3.90625 3.902343-10.238281 3.902343-14.140624 0zm0 0" fill="#fc7acd"/><path d="m408.210938 263.648438c-3.90625-3.90625-3.90625-10.238282 0-14.144532l11.246093-11.242187-11.246093-11.246094c-3.90625-3.90625-3.90625-10.238281 0-14.144531 3.90625-3.902344 10.238281-3.902344 14.140624 0l18.316407 18.316406c1.875 1.875 2.929687 4.417969 2.929687 7.070312 0 2.652344-1.054687 5.195313-2.929687 7.070313l-18.3125 18.316406c-3.910157 3.90625-10.238281 3.90625-14.144531.003907zm0 0" fill="#8181fc"/><path d="m436.140625 31.773438h-52.667969c-4.144531 0-7.5-3.355469-7.5-7.5 0-4.140626 3.355469-7.5 7.5-7.5h52.667969c4.140625 0 7.5 3.359374 7.5 7.5 0 4.144531-3.359375 7.5-7.5 7.5zm0 0" fill="#aeaeff"/><path d="m345.792969 31.773438h-183.847657c-4.140624 0-7.5-3.355469-7.5-7.5 0-4.140626 3.359376-7.5 7.5-7.5h183.847657c4.144531 0 7.5 3.359374 7.5 7.5 0 4.144531-3.355469 7.5-7.5 7.5zm0 0" fill="#aeaeff"/><path d="m304.320312 24.273438c0-4.140626 3.359376-7.5 7.5-7.5h-149.875c-4.140624 0-7.5 3.359374-7.5 7.5 0 4.144531 3.359376 7.5 7.5 7.5h149.878907c-4.144531 0-7.503907-3.355469-7.503907-7.5zm0 0" fill="#8181fc"/></svg>