<svg height="512pt" viewBox="0 0 512 512" width="512pt" xmlns="http://www.w3.org/2000/svg"><path d="m51.230469 401.53125c14.910156 22.644531 33.46875 42.671875 54.847656 59.238281l41.367187 25.90625c32.71875 16.203125 69.566407 25.324219 108.554688 25.324219 38.984375 0 75.835938-9.121094 108.558594-25.324219l41.363281-25.90625c21.378906-16.566406 39.9375-36.589843 54.847656-59.238281l25.90625-51.835938c9.265625-25.835937 14.324219-53.675781 14.324219-82.695312 0-135.308594-109.691406-245-245-245s-245 109.691406-245 245c0 29.019531 5.058594 56.859375 14.324219 82.695312zm0 0" fill="#2b3894"/><path d="m217.722656 51.230469h-141.171875c-7.152343 0-12.953125-5.800781-12.953125-12.953125 0-7.15625 5.800782-12.953125 12.953125-12.953125h141.171875c7.15625 0 12.953125 5.796875 12.953125 12.953125 0 7.152344-5.796875 12.953125-12.953125 12.953125zm0 0" fill="#86fdfb"/><path d="m217.722656 25.320312h-65.996094c7.152344 0 12.949219 5.800782 12.949219 12.953126 0 7.15625-5.796875 12.953124-12.949219 12.953124h65.996094c7.15625 0 12.953125-5.796874 12.953125-12.953124 0-7.152344-5.796875-12.953126-12.953125-12.953126zm0 0" fill="#11dfef"/><path d="m435.449219 51.230469h-141.171875c-7.15625 0-12.953125-5.800781-12.953125-12.953125 0-7.15625 5.796875-12.953125 12.953125-12.953125h141.171875c7.152343 0 12.953125 5.796875 12.953125 12.953125 0 7.152344-5.800782 12.953125-12.953125 12.953125zm0 0" fill="#86fdfb"/><path d="m435.449219 25.320312h-66c7.152343 0 12.953125 5.800782 12.953125 12.953126 0 7.15625-5.800782 12.953124-12.953125 12.953124h66c7.152343 0 12.953125-5.796874 12.953125-12.953124 0-7.152344-5.800782-12.953126-12.953125-12.953126zm0 0" fill="#11dfef"/><path d="m217.722656 460.769531h-111.644531c12.835937 9.945313 26.683594 18.636719 41.367187 25.90625h70.277344c7.15625 0 12.953125-5.796875 12.953125-12.953125 0-7.152344-5.796875-12.953125-12.953125-12.953125zm0 0" fill="#86fdfb"/><path d="m217.722656 460.769531h-65.996094c7.152344 0 12.949219 5.800781 12.949219 12.953125 0 7.15625-5.796875 12.953125-12.949219 12.953125h65.996094c7.15625 0 12.953125-5.800781 12.953125-12.953125s-5.796875-12.953125-12.953125-12.953125zm0 0" fill="#11dfef"/><g fill="#86fdfb"><path d="m294.277344 460.769531c-7.15625 0-12.953125 5.800781-12.953125 12.953125 0 7.15625 5.796875 12.953125 12.953125 12.953125h70.28125c14.679687-7.269531 28.527344-15.960937 41.363281-25.90625zm0 0"/><path d="m38.277344 281.324219c-7.15625 0-12.957032 5.796875-12.957032 12.953125v55.414062c6.597657 18.402344 15.335938 35.777344 25.910157 51.839844v-107.253906c0-7.15625-5.800781-12.953125-12.953125-12.953125zm0 0"/><path d="m38.277344 230.675781c-7.15625 0-12.953125-5.796875-12.953125-12.953125v-141.171875c0-7.152343 5.796875-12.953125 12.953125-12.953125 7.152344 0 12.953125 5.800782 12.953125 12.953125v141.171875c0 7.15625-5.800781 12.953125-12.953125 12.953125zm0 0"/><path d="m486.675781 349.695312v-55.417968c0-7.15625-5.796875-12.953125-12.953125-12.953125-7.152344 0-12.953125 5.800781-12.953125 12.953125v107.253906c10.574219-16.0625 19.308594-33.4375 25.90625-51.835938zm0 0"/><path d="m473.722656 230.675781c-7.152344 0-12.953125-5.796875-12.953125-12.953125v-141.171875c0-7.152343 5.800781-12.953125 12.953125-12.953125 7.15625 0 12.953125 5.800782 12.953125 12.953125v141.171875c0 7.15625-5.796875 12.953125-12.953125 12.953125zm0 0"/></g><path d="m38.277344 172.300781c-7.15625 0-12.957032-5.796875-12.957032-12.953125v58.375c0 7.15625 5.800782 12.953125 12.957032 12.953125 7.152344 0 12.953125-5.800781 12.953125-12.953125v-58.371094c0 7.152344-5.800781 12.949219-12.953125 12.949219zm0 0" fill="#11dfef"/><path d="m473.722656 172.300781c-7.152344 0-12.953125-5.796875-12.953125-12.953125v58.375c0 7.15625 5.800781 12.953125 12.953125 12.953125 7.15625 0 12.953125-5.800781 12.953125-12.953125v-58.371094c0 7.152344-5.796875 12.949219-12.953125 12.949219zm0 0" fill="#11dfef"/><path d="m402.792969 327.339844-80.496094-33.785156-64.277344 26.980468c-1.292969.542969-2.746093.542969-4.035156 0l-64.28125-26.980468-80.496094 33.785156c-4.261719 1.789062-4.261719 7.828125 0 9.617187l144.773438 60.761719c1.292969.542969 2.746093.542969 4.035156 0l144.777344-60.761719c4.261719-1.789062 4.261719-7.828125 0-9.617187zm0 0" fill="#fecd0a"/><path d="m62.625 0h-48.699219c-7.660156 0-13.925781 6.265625-13.925781 13.925781v48.699219c0 7.660156 6.265625 13.925781 13.925781 13.925781h48.699219c7.65625 0 13.925781-6.265625 13.925781-13.925781v-48.699219c0-7.660156-6.265625-13.925781-13.925781-13.925781zm0 0" fill="#8181fc"/><path d="m45.6875 60.382812c.070312 0 .140625.007813.210938.007813v-44.144531c-.070313 0-.140626.011718-.210938.011718-4.6875 0-8.484375-3.800781-8.484375-8.484374 0-3.476563 2.09375-6.460938 5.085937-7.773438h-28.363281c-7.660156 0-13.925781 6.265625-13.925781 13.925781v48.699219c0 7.660156 6.265625 13.925781 13.925781 13.925781h28.183594c-2.894531-1.351562-4.90625-4.28125-4.90625-7.6875 0-4.683593 3.796875-8.480469 8.484375-8.480469zm0 0" fill="#615df9"/><path d="m54.570312 15.542969h-32.585937c-3.550781 0-6.4375 2.890625-6.4375 6.4375v32.589843c0 3.546876 2.886719 6.4375 6.4375 6.4375h32.585937c3.546876 0 6.4375-2.890624 6.4375-6.4375v-32.589843c0-3.546875-2.890624-6.4375-6.4375-6.4375zm0 0" fill="#3d4ec6"/><path d="m36.378906 54.570312v-32.589843c0-3.546875 2.886719-6.4375 6.4375-6.4375h-20.832031c-3.550781 0-6.441406 2.890625-6.441406 6.4375v32.589843c0 3.546876 2.890625 6.4375 6.441406 6.4375h20.832031c-3.550781 0-6.4375-2.890624-6.4375-6.4375zm0 0" fill="#3342ae"/><path d="m189.703125 293.554688-80.496094 33.785156c-4.261719 1.789062-4.261719 7.828125 0 9.617187l52.171875 21.894531c-3.84375-6.058593-1.945312-14.992187 5.699219-18.203124l67.417969-28.292969zm0 0" fill="#fca60d"/><path d="m280.347656 0h-48.695312c-7.660156 0-13.925782 6.265625-13.925782 13.925781v48.699219c0 7.660156 6.265626 13.925781 13.925782 13.925781h48.695312c7.660156 0 13.929688-6.265625 13.929688-13.925781v-48.699219c0-7.660156-6.269532-13.925781-13.929688-13.925781zm0 0" fill="#8181fc"/><path d="m263.414062 60.382812c.070313 0 .136719.007813.207032.007813v-44.144531c-.070313.003906-.136719.011718-.207032.011718-4.6875 0-8.488281-3.800781-8.488281-8.484374 0-3.476563 2.09375-6.460938 5.085938-7.773438h-28.359375c-7.660156 0-13.929688 6.269531-13.929688 13.925781v48.699219c0 7.660156 6.269532 13.925781 13.929688 13.925781h28.179687c-2.894531-1.351562-4.90625-4.277343-4.90625-7.683593 0-4.6875 3.800781-8.484376 8.488281-8.484376zm0 0" fill="#615df9"/><path d="m272.292969 15.542969h-32.585938c-3.550781 0-6.4375 2.890625-6.4375 6.4375v32.589843c0 3.546876 2.886719 6.4375 6.4375 6.4375h32.585938c3.550781 0 6.4375-2.890624 6.4375-6.4375v-32.585937c0-3.550781-2.886719-6.441406-6.4375-6.441406zm0 0" fill="#3d4ec6"/><path d="m254.101562 54.570312v-32.585937c0-3.550781 2.890626-6.4375 6.4375-6.4375h-20.832031c-3.550781 0-6.4375 2.886719-6.4375 6.4375v32.585937c0 3.550782 2.886719 6.4375 6.4375 6.4375h20.832031c-3.546874 0-6.4375-2.890624-6.4375-6.4375zm0 0" fill="#3342ae"/><path d="m498.074219 0h-48.699219c-7.660156 0-13.925781 6.265625-13.925781 13.925781v48.699219c0 7.660156 6.265625 13.925781 13.925781 13.925781h48.699219c7.65625 0 13.925781-6.265625 13.925781-13.925781v-48.699219c0-7.660156-6.269531-13.925781-13.925781-13.925781zm0 0" fill="#8181fc"/><path d="m481.136719 60.382812c.070312 0 .140625.007813.210937.007813v-44.144531c-.074218.003906-.140625.011718-.210937.011718-4.6875 0-8.484375-3.800781-8.484375-8.484374 0-3.476563 2.089844-6.460938 5.085937-7.773438h-28.363281c-7.660156 0-13.929688 6.269531-13.929688 13.925781v48.699219c0 7.660156 6.269532 13.925781 13.929688 13.925781h28.183594c-2.898438-1.351562-4.910156-4.277343-4.910156-7.683593.003906-4.6875 3.800781-8.484376 8.488281-8.484376zm0 0" fill="#615df9"/><path d="m490.015625 15.542969h-32.585937c-3.546876 0-6.4375 2.890625-6.4375 6.4375v32.589843c0 3.546876 2.890624 6.4375 6.4375 6.4375h32.585937c3.550781 0 6.441406-2.890624 6.441406-6.4375v-32.585937c-.003906-3.550781-2.890625-6.441406-6.441406-6.441406zm0 0" fill="#3d4ec6"/><path d="m471.824219 54.570312v-32.585937c0-3.550781 2.890625-6.4375 6.441406-6.4375h-20.832031c-3.550782 0-6.441406 2.886719-6.441406 6.4375v32.585937c0 3.550782 2.890624 6.4375 6.441406 6.4375h20.832031c-3.550781 0-6.441406-2.890624-6.441406-6.4375zm0 0" fill="#3342ae"/><path d="m62.625 217.722656h-48.699219c-7.660156 0-13.925781 6.269532-13.925781 13.929688v48.695312c0 7.660156 6.265625 13.929688 13.925781 13.929688h48.699219c7.65625 0 13.925781-6.269532 13.925781-13.929688v-48.695312c0-7.660156-6.265625-13.929688-13.925781-13.929688zm0 0" fill="#8181fc"/><path d="m45.6875 278.105469c.070312 0 .140625.007812.210938.011719v-44.148438c-.070313.003906-.140626.011719-.210938.011719-4.6875 0-8.484375-3.796875-8.484375-8.484375 0-3.476563 2.09375-6.460938 5.085937-7.773438h-28.363281c-7.660156 0-13.925781 6.269532-13.925781 13.929688v48.695312c0 7.660156 6.265625 13.929688 13.925781 13.929688h28.183594c-2.894531-1.351563-4.90625-4.28125-4.90625-7.6875 0-4.6875 3.796875-8.484375 8.484375-8.484375zm0 0" fill="#615df9"/><path d="m54.570312 233.265625h-32.585937c-3.550781 0-6.4375 2.890625-6.4375 6.441406v32.585938c0 3.550781 2.886719 6.4375 6.4375 6.4375h32.585937c3.546876 0 6.4375-2.886719 6.4375-6.4375v-32.585938c0-3.550781-2.890624-6.441406-6.4375-6.441406zm0 0" fill="#3d4ec6"/><path d="m36.378906 272.292969v-32.585938c0-3.550781 2.886719-6.4375 6.4375-6.4375h-20.832031c-3.550781 0-6.441406 2.886719-6.441406 6.4375v32.585938c0 3.550781 2.890625 6.4375 6.441406 6.4375h20.832031c-3.550781 0-6.4375-2.886719-6.4375-6.4375zm0 0" fill="#3342ae"/><path d="m498.074219 217.722656h-48.699219c-7.660156 0-13.925781 6.269532-13.925781 13.929688v48.695312c0 7.660156 6.265625 13.929688 13.925781 13.929688h48.699219c7.65625 0 13.925781-6.269532 13.925781-13.929688v-48.695312c0-7.660156-6.269531-13.929688-13.925781-13.929688zm0 0" fill="#8181fc"/><path d="m481.136719 278.105469c.070312 0 .140625.007812.210937.011719v-44.148438c-.074218.003906-.140625.011719-.210937.011719-4.6875 0-8.484375-3.796875-8.484375-8.484375 0-3.476563 2.089844-6.460938 5.085937-7.773438h-28.363281c-7.660156 0-13.929688 6.269532-13.929688 13.929688v48.695312c0 7.660156 6.269532 13.929688 13.929688 13.929688h28.183594c-2.898438-1.351563-4.910156-4.28125-4.910156-7.6875.003906-4.6875 3.800781-8.484375 8.488281-8.484375zm0 0" fill="#615df9"/><path d="m490.015625 233.269531h-32.585937c-3.546876 0-6.4375 2.886719-6.4375 6.4375v32.585938c0 3.550781 2.890624 6.4375 6.4375 6.4375h32.585937c3.550781 0 6.441406-2.886719 6.441406-6.4375v-32.585938c-.003906-3.550781-2.890625-6.4375-6.441406-6.4375zm0 0" fill="#3d4ec6"/><path d="m471.824219 272.292969v-32.585938c0-3.550781 2.890625-6.4375 6.441406-6.4375h-20.832031c-3.550782 0-6.441406 2.886719-6.441406 6.4375v32.585938c0 3.550781 2.890624 6.4375 6.441406 6.4375h20.832031c-3.550781 0-6.441406-2.886719-6.441406-6.4375zm0 0" fill="#3342ae"/><path d="m280.347656 435.449219h-48.695312c-7.660156 0-13.925782 6.265625-13.925782 13.925781v48.695312c0 7.660157 6.265626 13.929688 13.925782 13.929688h48.695312c7.660156 0 13.929688-6.269531 13.929688-13.929688v-48.695312c0-7.660156-6.269532-13.925781-13.929688-13.925781zm0 0" fill="#8181fc"/><path d="m263.414062 495.828125c.070313 0 .136719.011719.207032.011719v-44.144532c-.070313 0-.136719.011719-.207032.011719-4.6875 0-8.488281-3.800781-8.488281-8.484375 0-3.476562 2.09375-6.460937 5.085938-7.773437h-28.359375c-7.660156 0-13.929688 6.265625-13.929688 13.925781v48.699219c0 7.65625 6.269532 13.925781 13.929688 13.925781h28.179687c-2.894531-1.351562-4.90625-4.28125-4.90625-7.6875 0-4.683594 3.800781-8.484375 8.488281-8.484375zm0 0" fill="#615df9"/><path d="m272.292969 450.992188h-32.585938c-3.550781 0-6.4375 2.886718-6.4375 6.4375v32.585937c0 3.550781 2.886719 6.4375 6.4375 6.4375h32.585938c3.550781 0 6.4375-2.886719 6.4375-6.4375v-32.585937c0-3.546876-2.886719-6.4375-6.4375-6.4375zm0 0" fill="#3d4ec6"/><path d="m254.101562 490.019531v-32.589843c0-3.546876 2.890626-6.4375 6.4375-6.4375h-20.832031c-3.550781 0-6.4375 2.890624-6.4375 6.4375v32.589843c0 3.546875 2.886719 6.4375 6.4375 6.4375h20.832031c-3.546874 0-6.4375-2.890625-6.4375-6.4375zm0 0" fill="#3342ae"/><path d="m402.792969 251.191406-80.496094-33.785156-64.277344 26.980469c-1.292969.542969-2.746093.542969-4.035156 0l-64.28125-26.980469-80.496094 33.785156c-4.261719 1.789063-4.261719 7.828125 0 9.617188l144.773438 60.761718c1.292969.542969 2.746093.542969 4.035156 0l144.777344-60.761718c4.261719-1.789063 4.261719-7.828125 0-9.617188zm0 0" fill="#00c82f"/><path d="m253.984375 114.277344-144.777344 60.765625c-4.261719 1.789062-4.261719 7.828125 0 9.617187l144.777344 60.761719c1.289063.542969 2.742187.542969 4.035156 0l144.773438-60.761719c4.261719-1.789062 4.261719-7.828125 0-9.617187l-144.773438-60.765625c-1.292969-.539063-2.746093-.539063-4.035156 0zm0 0" fill="#27a3ff"/><path d="m167.078125 188.300781 116.542969-48.914062c8.5625-3.59375 17.902344-4.609375 26.910156-3.066407l-52.515625-22.042968c-1.289063-.542969-2.742187-.542969-4.035156 0l-144.773438 60.765625c-4.261719 1.789062-4.261719 7.824219 0 9.613281l52.210938 21.914062c-3.898438-6.058593-2.011719-15.046874 5.660156-18.269531zm0 0" fill="#0080f4"/><path d="m189.703125 217.40625-80.496094 33.785156c-4.261719 1.789063-4.261719 7.828125 0 9.617188l52.171875 21.894531c-3.84375-6.058594-1.945312-14.992187 5.699219-18.203125l67.417969-28.292969zm0 0" fill="#02ad22"/></svg>