<svg height="512pt" viewBox="-11 0 512 512" width="512pt" xmlns="http://www.w3.org/2000/svg"><path d="m464.042969 376.835938c16.597656-33.039063 25.957031-70.34375 25.957031-109.835938 0-135.308594-109.691406-245-245-245s-245 109.691406-245 245c0 39.492188 9.359375 76.796875 25.957031 109.835938zm0 0" fill="#27a3ff"/><path d="m465.035156 306.023438c0-119.628907 0-248.589844 0-258.996094h-440.070312v327.808594c39.886718 81.234374 123.417968 137.15625 220.019531 137.164062h.03125c31.933594-.003906 62.4375-6.121094 90.414063-17.238281zm0 0" fill="#e6f7fe"/><path d="m91.773438 47.027344h-66.808594v327.808594c15.945312 32.472656 38.871094 60.894531 66.808594 83.324218zm0 0" fill="#d5f1fe"/><path d="m463.691406 0c-8.492187 0-425.023437 0-437.382812 0-.742188 0-1.34375.601562-1.34375 1.34375v47.207031h440.070312v-47.207031c0-.742188-.601562-1.34375-1.34375-1.34375zm0 0" fill="#615df9"/><path d="m91.773438 12c0-6.601562 5.402343-12 12-12-43.648438 0-74.25 0-77.464844 0-.742188 0-1.34375.601562-1.34375 1.34375v47.207031h66.808594zm0 0" fill="#3342ae"/><path d="m61.300781 33.808594c-5.507812 0-10-4.488282-10-10 0-4.769532 3.351563-8.859375 8.050781-9.8125 6.117188-1.230469 11.949219 3.472656 11.949219 9.8125 0 5.554687-4.542969 10-10 10zm0 0" fill="#f948b4"/><path d="m91.800781 33.808594c-5.429687 0-10-4.421875-10-10 0-6.324219 5.816407-11.046875 11.949219-9.8125 4.84375.984375 8.050781 5.214844 8.050781 9.8125 0 5.507812-4.488281 10-10 10zm0 0" fill="#fecd0a"/><path d="m122.300781 33.808594c-5.429687 0-10-4.421875-10-10 0-6.355469 5.84375-11.042969 11.949219-9.8125 4.84375.984375 8.050781 5.21875 8.050781 9.8125 0 5.507812-4.488281 10-10 10zm0 0" fill="#39df74"/><path d="m191 110.355469h-88.320312c-6.023438 0-10.90625 4.882812-10.90625 10.90625v336.898437c30.738281 24.667969 67.542968 42.074219 107.828124 49.625 1.4375-1.847656 2.304688-4.167968 2.304688-6.691406v-379.832031c0-6.023438-4.882812-10.90625-10.90625-10.90625zm0 0" fill="#27a3ff"/><path d="m201.90625 501.09375v-104.074219s-12.308594 16.707031-27.339844 5.023438c-3.105468-2.414063-7.429687-2.546875-10.613281-.234375-9.3125 6.761718-29.667969 16.121094-55-4.789063h-17.179687v61.140625c30.734374 24.667969 67.542968 42.074219 107.828124 49.625 1.4375-1.847656 2.304688-4.167968 2.304688-6.691406zm0 0" fill="#0080f4"/><path d="m330.761719 300.960938c3.160156-1.222657 5.417969-4.050782 5.890625-7.386719l1.816406-12.804688v-71.675781c-2.625 6.511719-8.988281 11.109375-16.441406 11.109375-5.996094 0-11.289063-2.980469-14.492188-7.542969-.726562-1.03125-1.875-1.484375-2.988281-1.398437v104.722656c7.949219-6.316406 16.757813-11.378906 26.214844-15.023437zm0 0" fill="#fce395"/><path d="m304.546875 504.699219c10.9375-2.734375 21.585937-6.199219 31.886719-10.34375-.75-2.878907-2.84375-5.261719-5.671875-6.351563-9.453125-3.648437-18.265625-8.707031-26.214844-15.023437zm0 0" fill="#fecd0a"/><path d="m294.554688 317.902344c3.125 1.257812 6.691406.726562 9.304687-1.382813.226563-.183593.457031-.355469.6875-.535156v-104.722656c-.941406.074219-1.855469.527343-2.46875 1.398437-3.199219 4.5625-8.496094 7.542969-14.492187 7.542969-5.996094 0-11.289063-2.980469-14.492188-7.542969-.613281-.871094-1.527344-1.324218-2.46875-1.398437v97.003906zm0 0" fill="#fecd0a"/><path d="m294.554688 471.0625-23.929688 9.632812v29.976563c11.566406-1.203125 22.890625-3.21875 33.921875-5.972656v-31.71875c-.230469-.179688-.460937-.351563-.6875-.535157-2.613281-2.109374-6.175781-2.640624-9.304687-1.382812zm0 0" fill="#fca60d"/><path d="m267.632812 212.660156c-3.203124 4.5625-8.496093 7.542969-14.492187 7.542969-7.449219 0-13.816406-4.597656-16.4375-11.109375v302.75c2.75.09375 5.511719.15625 8.285156.15625h.019531c8.652344 0 17.195313-.453125 25.613282-1.328125v-29.976563l-3.851563 1.550782c-3.105469 1.246094-6.707031.007812-8.382812-2.894532l-19.277344-33.390624c-1.675781-2.898438-.949219-6.644532 1.6875-8.707032l23.546875-18.449218c2.648438-2.074219 3.972656-5.421876 3.457031-8.734376-1.617187-10.34375-1.617187-20.832031 0-31.175781.515625-3.316406-.808593-6.660156-3.457031-8.738281l-23.546875-18.445312c-2.636719-2.0625-3.363281-5.808594-1.6875-8.707032l19.277344-33.394531c1.675781-2.898437 5.277343-4.140625 8.386719-2.890625l3.851562 1.546875v-97.003906c-1.117188-.085938-2.265625.367187-2.992188 1.398437zm0 0" fill="#fca60d"/><path d="m245.011719 512c8.648437 0 17.191406-.457031 25.613281-1.332031v-29.972657l-3.851562 1.550782c-3.109376 1.246094-6.710938.007812-8.386719-2.894532l-19.277344-33.390624c-1.675781-2.902344-.949219-6.644532 1.6875-8.710938l23.550781-18.445312c2.648438-2.078126 3.972656-5.425782 3.453125-8.738282-.535156-3.429687-.875-6.878906-1.058593-10.332031-.003907.003906-.007813.007813-.011719.011719-18.226563 14.613281-29.589844 0-29.589844 0l-.4375.421875v111.675781c2.753906.09375 5.511719.15625 8.289063.15625zm0 0" fill="#f98a10"/><path d="m191 110.355469h-21.546875v389.757812c9.792969 3.171875 19.855469 5.742188 30.148437 7.671875 1.4375-1.847656 2.304688-4.167968 2.304688-6.691406v-379.832031c0-6.023438-4.882812-10.90625-10.90625-10.90625zm0 0" fill="#0080f4"/><path d="m201.90625 501.09375v-104.074219s-12.308594 16.707031-27.339844 5.023438c-1.507812-1.171875-3.300781-1.800781-5.113281-1.878907v99.949219c9.792969 3.171875 19.855469 5.742188 30.148437 7.671875 1.4375-1.847656 2.304688-4.167968 2.304688-6.691406zm0 0" fill="#0063f2"/><path d="m146.839844 128.015625c-4.140625 0-7.5 3.359375-7.5 7.5v12.296875c0 4.144531 3.359375 7.5 7.5 7.5s7.5-3.355469 7.5-7.5v-12.296875c0-4.140625-3.359375-7.5-7.5-7.5zm0 0" fill="#fecd0a"/><path d="m119.507812 366.976562c0-4.140624-3.359374-7.5-7.5-7.5h-20.234374v15h20.234374c4.140626 0 7.5-3.355468 7.5-7.5zm0 0" fill="#4fbbff"/><path d="m112.757812 401.511719c0-4.144531-3.359374-7.5-7.5-7.5h-13.484374v15h13.484374c4.140626 0 7.5-3.355469 7.5-7.5zm0 0" fill="#27a3ff"/><g fill="#4fbbff"><path d="m112.757812 332.445312c0-4.144531-3.359374-7.5-7.5-7.5h-13.484374v15h13.484374c4.140626 0 7.5-3.359374 7.5-7.5zm0 0"/><path d="m112.757812 297.910156c0-4.144531-3.359374-7.5-7.5-7.5h-13.484374v15h13.484374c4.140626 0 7.5-3.359375 7.5-7.5zm0 0"/><path d="m112.007812 255.875h-20.234374v15h20.234374c4.140626 0 7.5-3.355469 7.5-7.5 0-4.140625-3.359374-7.5-7.5-7.5zm0 0"/></g><path d="m112.757812 436.046875c0-4.144531-3.359374-7.5-7.5-7.5h-13.484374v15h13.484374c4.140626 0 7.5-3.359375 7.5-7.5zm0 0" fill="#27a3ff"/><path d="m112.007812 152.273438h-20.234374v15h20.234374c4.140626 0 7.5-3.355469 7.5-7.5 0-4.140626-3.359374-7.5-7.5-7.5zm0 0" fill="#4fbbff"/><path d="m112.757812 194.308594c0-4.144532-3.359374-7.5-7.5-7.5h-13.484374v15h13.484374c4.140626 0 7.5-3.359375 7.5-7.5zm0 0" fill="#4fbbff"/><path d="m112.757812 228.84375c0-4.144531-3.359374-7.5-7.5-7.5h-13.484374v15h13.484374c4.140626 0 7.5-3.359375 7.5-7.5zm0 0" fill="#4fbbff"/><path d="m465.035156 374.835938v-68.8125l-26.050781 10.484374c-2.621094 1.054688-5.605469.621094-7.800781-1.15625-8.15625-6.59375-17.351563-11.953124-27.304688-15.792968-2.648437-1.019532-4.546875-3.382813-4.945312-6.191406l-4.203125-29.632813c-.578125-4.074219-4.066407-7.101563-8.183594-7.101563h-38.558594c-4.113281 0-7.601562 3.027344-8.179687 7.101563l-4.203125 29.628906c-.398438 2.8125-2.296875 5.175781-4.945313 6.195313-9.953125 3.84375-19.152344 9.199218-27.308594 15.792968-2.195312 1.777344-5.179687 2.210938-7.800781 1.15625l-27.78125-11.183593c-3.816406-1.539063-8.183593-.027344-10.242187 3.535156l-19.28125 33.394531c-2.058594 3.5625-1.179688 8.097656 2.0625 10.636719l23.546875 18.449219c2.222656 1.738281 3.335937 4.535156 2.902343 7.320312-1.640624 10.46875-1.640624 21.167969 0 31.640625.433594 2.785157-.679687 5.585938-2.902343 7.324219l-23.546875 18.445312c-3.242188 2.539063-4.121094 7.074219-2.0625 10.640626l19.28125 33.390624c2.058594 3.566407 6.421875 5.074219 10.242187 3.535157l27.78125-11.183594c2.621094-1.054687 5.605469-.617187 7.800781 1.15625 8.15625 6.597656 17.355469 11.953125 27.308594 15.792969 2.378906.917968 4.144532 2.921875 4.765625 5.363281 56.652344-22.511719 102.910157-65.550781 129.609375-119.929687zm0 0" fill="#8181fc"/><path d="m303.351562 473.609375c8.15625 6.597656 17.355469 11.953125 27.308594 15.792969 2.378906.917968 4.144532 2.925781 4.765625 5.363281 30.265625-12.027344 57.5625-29.914063 80.496094-52.257813-10.273437-.011718-12.574219-7.519531-13.015625-12.1875-.195312-2.109374-1.796875-3.800781-3.898438-4.089843-56.53125-7.746094-54.265624-56.820313-52.308593-71.386719.292969-2.191406-1.070313-4.226562-3.179688-4.890625-8.738281-2.753906-9.011719-10.257813-8.203125-15.015625.386719-2.261719-.929687-4.480469-3.136718-5.121094-20.726563-6.023437-13.023438-24.800781-12.941407-25.003906-5.632812 3.023438-10.953125 6.550781-15.886719 10.539062-2.195312 1.777344-5.179687 2.210938-7.800781 1.160157l-27.78125-11.1875c-3.820312-1.535157-8.1875-.027344-10.246093 3.535156l-19.277344 33.394531c-2.058594 3.5625-1.179688 8.101563 2.0625 10.636719l23.546875 18.449219c2.222656 1.738281 3.335937 4.535156 2.898437 7.324218-1.636718 10.464844-1.636718 21.167969 0 31.636719.4375 2.785157-.675781 5.585938-2.898437 7.324219l-23.546875 18.445312c-3.242188 2.539063-4.121094 7.074219-2.0625 10.640626l19.277344 33.394531c2.058593 3.5625 6.425781 5.070312 10.246093 3.53125l27.78125-11.183594c2.621094-1.054687 5.605469-.617187 7.800781 1.15625zm0 0" fill="#615df9"/><path d="m367.269531 323.734375c-39.074219 0-70.75 31.675781-70.75 70.746094 0 39.074219 31.675781 70.75 70.75 70.75 11.175781 0 21.746094-2.601563 31.144531-7.21875 11.199219-9.007813 21.59375-18.972657 31.050782-29.785157 5.453125-10.03125 8.550781-21.523437 8.550781-33.746093 0-39.070313-31.671875-70.746094-70.746094-70.746094zm0 0" fill="#615df9"/><path d="m367.269531 465.230469c11.179688 0 21.746094-2.601563 31.144531-7.21875 6.078126-4.890625 11.910157-10.070313 17.492188-15.503907-10.257812-.019531-12.558594-7.523437-12.996094-12.1875-.199218-2.109374-1.800781-3.800781-3.902344-4.089843-56.53125-7.746094-54.265624-56.820313-52.308593-71.386719.292969-2.195312-1.070313-4.226562-3.179688-4.890625-8.738281-2.753906-9.011719-10.257813-8.199219-15.015625.195313-1.164062-.058593-2.308594-.648437-3.242188-22.664063 11.792969-38.152344 35.472657-38.152344 62.785157 0 39.074219 31.675781 70.75 70.75 70.75zm0 0" fill="#3d4ec6"/><path d="m415.296875 394.480469c0 26.523437-21.503906 48.027343-48.027344 48.027343-26.523437 0-48.027343-21.503906-48.027343-48.027343 0-26.523438 21.503906-48.027344 48.027343-48.027344 26.523438 0 48.027344 21.503906 48.027344 48.027344zm0 0" fill="#3d4ec6"/><path d="m319.242188 394.480469c0 26.523437 21.503906 48.027343 48.027343 48.027343 13.582031 0 25.835938-5.648437 34.570313-14.707031-.703125-.832031-1.6875-1.414062-2.832032-1.570312-56.53125-7.746094-54.265624-56.820313-52.308593-71.386719.164062-1.230469-.203125-2.394531-.917969-3.3125-15.730469 7.886719-26.539062 24.152344-26.539062 42.949219zm0 0" fill="#3342ae"/><path d="m312.1875 150.355469c-7.242188 2.800781-15.636719 4.417969-24.601562 4.417969-8.96875 0-17.363282-1.617188-24.605469-4.417969l-26.277344 58.738281v2.1875c2.621094 6.511719 8.988281 12.113281 16.4375 12.113281 5.996094 0 11.289063-2.984375 14.492187-7.542969.726563-1.035156 1.875-1.488281 2.988282-1.402343.941406.074219 1.859375.527343 2.46875 1.402343 3.203125 4.558594 8.496094 7.542969 14.496094 7.542969 5.996093 0 11.289062-2.984375 14.492187-7.542969.613281-.875 1.527344-1.324218 2.46875-1.398437 1.113281-.089844 2.261719.363281 2.988281 1.398437 3.203125 4.558594 8.496094 7.542969 14.492188 7.542969 7.449218 0 13.816406-5.601562 16.4375-12.113281v-2.1875zm0 0" fill="#d5f1fe"/><path d="m262.980469 150.355469-26.277344 58.738281v2.1875c2.621094 6.511719 8.988281 12.113281 16.4375 12.113281 5.996094 0 11.289063-2.984375 14.492187-7.542969.726563-1.035156 1.875-1.488281 2.988282-1.402343l16.652344-59.683594c-8.847657-.035156-17.132813-1.640625-24.292969-4.410156zm0 0" fill="#b4e7fd"/><path d="m287.585938 155.773438c9.121093 0 17.660156-1.667969 24.984374-4.558594l-14.96875-33.460938c-3.871093-8.65625-16.160156-8.65625-20.035156 0l-14.96875 33.460938c7.328125 2.890625 15.863282 4.558594 24.988282 4.558594zm0 0" fill="#615df9"/><path d="m297.601562 117.753906c-3.871093-8.65625-16.160156-8.65625-20.035156 0l-14.96875 33.460938c7.167969 2.832031 15.5 4.472656 24.402344 4.546875zm0 0" fill="#3342ae"/><path d="m436.140625 31.773438h-52.667969c-4.144531 0-7.5-3.355469-7.5-7.5 0-4.140626 3.355469-7.5 7.5-7.5h52.667969c4.140625 0 7.5 3.359374 7.5 7.5 0 4.144531-3.359375 7.5-7.5 7.5zm0 0" fill="#aeaeff"/><path d="m345.792969 31.773438h-183.847657c-4.140624 0-7.5-3.355469-7.5-7.5 0-4.140626 3.359376-7.5 7.5-7.5h183.847657c4.140625 0 7.5 3.359374 7.5 7.5 0 4.144531-3.355469 7.5-7.5 7.5zm0 0" fill="#aeaeff"/><path d="m304.320312 24.273438c0-4.140626 3.359376-7.5 7.5-7.5h-149.875c-4.140624 0-7.5 3.359374-7.5 7.5 0 4.144531 3.359376 7.5 7.5 7.5h149.878907c-4.144531 0-7.503907-3.355469-7.503907-7.5zm0 0" fill="#8181fc"/></svg>