<?xml version="1.0" encoding="iso-8859-1"?>
<!-- Generator: Adobe Illustrator 19.0.0, SVG Export Plug-In . SVG Version: 6.00 Build 0)  -->
<svg version="1.1" id="Capa_1" xmlns="http://www.w3.org/2000/svg" xmlns:xlink="http://www.w3.org/1999/xlink" x="0px" y="0px"
	viewBox="0 0 416 416" style="enable-background:new 0 0 416 416;" xml:space="preserve">
	<style type="text/css">
		.st0{fill:#61DAFB;}
	</style>

	<path class="st0" d="M89.952,95.992l-6.576-2.576c-4.912-1.92-7.992-2.832-7.992-5.416c0-2.416,2.168-3.664,5.656-3.664
		c4,0,7.168,1.328,10.832,3.912l7.16-8.992c-4.992-4.904-11.824-7.24-17.984-7.24c-11.824,0-20.144,7.576-20.144,16.824
		c0,7.832,5.08,12.736,10.896,15.064l6.752,2.832c4.576,1.832,7.32,2.672,7.32,5.248c-0.016,2.4-1.84,3.816-6.168,3.816
		c-4,0-8.832-2.168-12.656-5.24l-8.16,9.824c5.832,5.248,13.648,7.752,20.48,7.752c13.496,0,21.152-8.168,21.152-17.32
		C100.52,103.32,96.688,98.656,89.952,95.992z"/>

		<path class="st0" d="M136.952,73.008l-5.504,23.648c-1.416,5.736-2.496,11.312-3.992,17.144h-0.336c-1.504-5.832-2.496-11.408-3.992-17.144
			l-5.664-23.648H102.32l15.984,54.12h17.312l15.984-54.12H136.952z"/>

			<path class="st0" d="M178.544,95.656v11.656h7.992v7.488c-1,0.672-2.664,1-4.168,1c-9.656,0-14.152-5.656-14.152-15.816
				c0-9.832,5.496-15.656,12.824-15.656c4.328,0,6.656,1.328,9.32,3.664l7.832-8.824C194.36,75.336,188.536,72,180.872,72
				c-14.816,0-27.304,10.32-27.304,28.48c0,18.48,12.16,27.648,26.976,27.648c7.656,0,14.648-3.336,18.648-6.664V95.656H178.544z"/>

				<rect class="st0"  x="32" y="112" width="16" height="16"/>

				<path class="st0" d="M413.656,82.344l-80-80C332.16,0.84,330.128,0,328,0h-8H120C97.944,0,80,17.944,80,40H40C17.944,40,0,57.944,0,80v40
					c0,22.056,17.944,40,40,40h40v184c0,22.056,17.944,40,40,40h24c4.424,0,8-3.576,8-8s-3.576-8-8-8h-24c-13.232,0-24-10.768-24-24
					V160h152c22.056,0,40-17.944,40-40V80c0-22.056-17.944-40-40-40H96c0-13.232,10.768-24,24-24h192v48c0,22.056,17.944,40,40,40h48
					v240c0,13.232-10.768,24-24,24h-24c-4.424,0-8,3.576-8,8s3.576,8,8,8h24c22.056,0,40-17.944,40-40V96v-8
					C416,85.872,415.16,83.84,413.656,82.344z M248,56c13.232,0,24,10.768,24,24v40c0,13.232-10.768,24-24,24H40
					c-13.232,0-24-10.768-24-24V80c0-13.232,10.768-24,24-24H248z M352,88c-13.232,0-24-10.768-24-24V19.312L396.688,88H352z"/>

					<path class="st0" d="M296,256h-96c-22.056,0-40,17.944-40,40v80c0,22.056,17.944,40,40,40h96c22.056,0,40-17.944,40-40v-80
						C336,273.944,318.056,256,296,256z M320,376c0,13.232-10.768,24-24,24h-96c-13.232,0-24-10.768-24-24v-80
						c0-13.232,10.768-24,24-24h96c13.232,0,24,10.768,24,24V376z"/>

						<polygon class="st0"  points="208,296 208,328 224,328 224,312 240,312 240,296 		"/>

						<polygon class="st0"  points="224,360 224,344 208,344 208,376 240,376 240,360 		"/>

						<polygon class="st0"  points="256,296 256,312 272,312 272,328 288,328 288,296 		"/>

						<polygon class="st0" points="272,344 272,360 256,360 256,376 288,376 288,344 		"/>

					</svg>
