<?xml version="1.0" encoding="utf-8"?>
<!-- Generator: Adobe Illustrator 21.0.0, SVG Export Plug-In . SVG Version: 6.00 Build 0)  -->
<svg version="1.1" id="Capa_1" xmlns="http://www.w3.org/2000/svg" xmlns:xlink="http://www.w3.org/1999/xlink" x="0px" y="0px"
	 viewBox="0 0 512 512" style="enable-background:new 0 0 512 512;" xml:space="preserve">
<style type="text/css">
	.st0{fill:#61DAFB;}
</style>
<path class="st0" d="M256,0C114.6,0,0,114.6,0,256s114.6,256,256,256c64.1,0,122.6-23.5,167.5-62.4c-3.7,0.2-7.6,0.3-11.6,0.3
	c-53.2,0-82.7-33.2-97.4-58.1l48.2-29c0,0,16.4,34.8,47.1,34.8c30.7,0,43-10.2,43-33.8c0-28.7-99.4-38.9-114.8-88.1
	c-15.4-49.2,5.1-118.9,76.9-113.7c44.8,3.2,70,25.2,82.7,41.3l-47.8,34.5c-10.2-29.7-52.3-29.7-60.5-5.1
	c-8.2,24.6,19.5,38.9,62.5,53.3c22.1,7.4,39.9,21,51.3,37c5.8-21.3,8.8-43.8,8.8-66.9C512,114.6,397.4,0,256,0z M300.9,221.2h-79.8
	v223.2h-58.2V221.2H83.1v-51.4h217.8V221.2z"/>
</svg>
